<svg xmlns="http://www.w3.org/2000/svg" xmlns:xlink="http://www.w3.org/1999/xlink" width="1080" zoomAndPan="magnify" viewBox="0 0 810 809.999993" height="1080" preserveAspectRatio="xMidYMid meet" version="1.0"><defs><clipPath id="94223be1d7"><path d="M 490 422 L 666 422 L 666 693.503906 L 490 693.503906 Z M 490 422 " clip-rule="nonzero"/></clipPath><clipPath id="bbdbcaa7e6"><path d="M 144 208 L 584 208 L 584 693.503906 L 144 693.503906 Z M 144 208 " clip-rule="nonzero"/></clipPath></defs><rect x="-81" width="972" fill="#ffffff" y="-80.999999" height="971.999992" fill-opacity="1"/><rect x="-81" width="972" fill="#0a0a0a" y="-80.999999" height="971.999992" fill-opacity="1"/><g clip-path="url(#94223be1d7)"><path fill="#ffffff" d="M 659.664062 625.902344 L 542.445312 422.917969 L 490.765625 512.535156 L 582.03125 670.65625 C 590.277344 684.953125 605.34375 693.089844 620.847656 693.089844 C 628.433594 693.089844 636.128906 691.109375 643.167969 687.042969 C 664.71875 674.617188 671.976562 647.347656 659.664062 625.902344 Z M 659.664062 625.902344 " fill-opacity="1" fill-rule="nonzero"/></g><g clip-path="url(#bbdbcaa7e6)"><path fill="#ffffff" d="M 577.414062 311.417969 L 527.710938 397.519531 L 475.917969 487.136719 L 395.867188 625.792969 C 371.898438 667.359375 327.144531 693.199219 279.203125 693.199219 C 230.488281 693.199219 186.835938 668.019531 162.425781 625.792969 C 138.011719 583.679688 138.011719 533.207031 162.425781 490.984375 L 302.511719 248.523438 C 317.027344 223.339844 343.089844 208.277344 372.117188 208.277344 C 401.148438 208.277344 427.207031 223.339844 441.832031 248.523438 L 446.890625 257.320312 L 461.40625 282.390625 L 409.613281 372.007812 L 372.117188 307.128906 L 240.164062 535.738281 C 228.398438 556.078125 236.207031 574.113281 240.164062 580.929688 C 244.125 587.75 255.78125 603.582031 279.3125 603.582031 C 295.367188 603.582031 310.429688 594.894531 318.347656 580.929688 L 424.238281 397.519531 L 476.03125 307.902344 L 499.78125 266.664062 C 512.207031 245.222656 539.585938 237.855469 561.027344 250.28125 C 582.46875 262.597656 589.835938 289.976562 577.414062 311.417969 Z M 577.414062 311.417969 " fill-opacity="1" fill-rule="nonzero"/></g><path fill="#ffffff" d="M 555.640625 204.976562 C 579.613281 258.96875 659.550781 225.871094 638.441406 170.671875 C 614.359375 116.789062 534.417969 149.886719 555.640625 204.976562 Z M 555.640625 204.976562 " fill-opacity="1" fill-rule="nonzero"/></svg>