<svg xmlns="http://www.w3.org/2000/svg" xmlns:xlink="http://www.w3.org/1999/xlink" width="200" zoomAndPan="magnify" viewBox="0 0 150 149.999998" height="200" preserveAspectRatio="xMidYMid meet" version="1.0"><defs><clipPath id="270c860332"><path d="M 89 78 L 120 78 L 120 124.476562 L 89 124.476562 Z M 89 78 " clip-rule="nonzero"/></clipPath><clipPath id="fbf4937e04"><path d="M 30 41 L 106 41 L 106 124.476562 L 30 124.476562 Z M 30 41 " clip-rule="nonzero"/></clipPath></defs><g clip-path="url(#270c860332)"><path fill="#ffffff" d="M 118.746094 112.945312 L 98.609375 78.074219 L 89.730469 93.46875 L 105.410156 120.636719 C 106.828125 123.089844 109.414062 124.488281 112.078125 124.488281 C 113.382812 124.488281 114.707031 124.148438 115.914062 123.449219 C 119.617188 121.316406 120.863281 116.628906 118.746094 112.945312 Z M 118.746094 112.945312 " fill-opacity="1" fill-rule="nonzero"/></g><g clip-path="url(#fbf4937e04)"><path fill="#ffffff" d="M 104.617188 58.917969 L 96.078125 73.710938 L 87.179688 89.105469 L 73.429688 112.925781 C 69.308594 120.066406 61.621094 124.507812 53.386719 124.507812 C 45.015625 124.507812 37.515625 120.183594 33.324219 112.925781 C 29.128906 105.691406 29.128906 97.019531 33.324219 89.765625 L 57.390625 48.113281 C 59.882812 43.785156 64.359375 41.199219 69.347656 41.199219 C 74.335938 41.199219 78.8125 43.785156 81.324219 48.113281 L 82.195312 49.625 L 84.6875 53.929688 L 75.789062 69.328125 L 69.347656 58.183594 L 46.679688 97.457031 C 44.65625 100.949219 46 104.046875 46.679688 105.21875 C 47.359375 106.390625 49.363281 109.113281 53.402344 109.113281 C 56.164062 109.113281 58.75 107.621094 60.109375 105.21875 L 78.300781 73.710938 L 87.199219 58.3125 L 91.28125 51.230469 C 93.414062 47.546875 98.117188 46.28125 101.804688 48.414062 C 105.488281 50.53125 106.753906 55.234375 104.617188 58.917969 Z M 104.617188 58.917969 " fill-opacity="1" fill-rule="nonzero"/></g><path fill="#ffffff" d="M 100.878906 40.632812 C 104.996094 49.90625 118.730469 44.222656 115.101562 34.738281 C 110.964844 25.480469 97.230469 31.167969 100.878906 40.632812 Z M 100.878906 40.632812 " fill-opacity="1" fill-rule="nonzero"/></svg>