<svg xmlns="http://www.w3.org/2000/svg" xmlns:xlink="http://www.w3.org/1999/xlink" width="1920" zoomAndPan="magnify" viewBox="0 0 1440 675.000002" height="900" preserveAspectRatio="xMidYMid meet" version="1.0"><defs><g/><clipPath id="19e66600e1"><path d="M 307 347 L 406 347 L 406 498.488281 L 307 498.488281 Z M 307 347 " clip-rule="nonzero"/></clipPath><clipPath id="66c5bb6f01"><path d="M 113 226 L 360 226 L 360 498.488281 L 113 498.488281 Z M 113 226 " clip-rule="nonzero"/></clipPath></defs><g clip-path="url(#19e66600e1)"><path fill="#ffffff" d="M 402.035156 460.605469 L 336.449219 347.027344 L 307.53125 397.171875 L 358.597656 485.644531 C 363.214844 493.644531 371.644531 498.195312 380.316406 498.195312 C 384.5625 498.195312 388.871094 497.089844 392.808594 494.8125 C 404.867188 487.859375 408.925781 472.601562 402.035156 460.605469 Z M 402.035156 460.605469 " fill-opacity="1" fill-rule="nonzero"/></g><g clip-path="url(#66c5bb6f01)"><path fill="#ffffff" d="M 356.015625 284.636719 L 328.203125 332.8125 L 299.226562 382.957031 L 254.433594 460.542969 C 241.023438 483.800781 215.980469 498.257812 189.15625 498.257812 C 161.898438 498.257812 137.472656 484.167969 123.8125 460.542969 C 110.15625 436.976562 110.15625 408.738281 123.8125 385.109375 L 202.199219 249.445312 C 210.320312 235.355469 224.902344 226.925781 241.144531 226.925781 C 257.386719 226.925781 271.96875 235.355469 280.152344 249.445312 L 282.984375 254.367188 L 291.105469 268.394531 L 262.125 318.539062 L 241.144531 282.238281 L 167.3125 410.152344 C 160.730469 421.535156 165.097656 431.625 167.3125 435.441406 C 169.527344 439.253906 176.050781 448.113281 189.21875 448.113281 C 198.199219 448.113281 206.628906 443.253906 211.058594 435.441406 L 270.308594 332.8125 L 299.289062 282.667969 L 312.578125 259.597656 C 319.53125 247.597656 334.851562 243.476562 346.847656 250.429688 C 358.84375 257.320312 362.96875 272.640625 356.015625 284.636719 Z M 356.015625 284.636719 " fill-opacity="1" fill-rule="nonzero"/></g><path fill="#ffffff" d="M 343.832031 225.082031 C 357.246094 255.289062 401.976562 236.769531 390.160156 205.882812 C 376.6875 175.738281 331.957031 194.257812 343.832031 225.082031 Z M 343.832031 225.082031 " fill-opacity="1" fill-rule="nonzero"/><g fill="#ffffff" fill-opacity="1"><g transform="translate(468.485887, 399.533104)"><g><path d="M 9.78125 0 L 9.78125 -118.515625 L 27.34375 -118.515625 L 27.34375 0 Z M 9.78125 0 "/></g></g></g><g fill="#ffffff" fill-opacity="1"><g transform="translate(505.613994, 399.533104)"><g><path d="M 7.625 0 L 7.625 -85.03125 L 23.375 -85.03125 L 23.375 -68.953125 L 23.703125 -68.953125 C 25.691406 -74.148438 28.757812 -78.347656 32.90625 -81.546875 C 37.050781 -84.753906 41.71875 -86.359375 46.90625 -86.359375 C 48.125 -86.359375 49.285156 -86.332031 50.390625 -86.28125 C 51.492188 -86.226562 52.597656 -86.085938 53.703125 -85.859375 L 53.703125 -72.109375 L 53.375 -72.109375 C 48.40625 -72.992188 43.625 -72.492188 39.03125 -70.609375 C 34.445312 -68.734375 30.691406 -65.75 27.765625 -61.65625 C 24.835938 -57.570312 23.375 -52.4375 23.375 -46.25 L 23.375 0 Z M 7.625 0 "/></g></g></g><g fill="#ffffff" fill-opacity="1"><g transform="translate(563.460985, 399.533104)"><g><path d="M 14.75 0 L 14.75 -72.9375 L 2.484375 -72.9375 L 2.484375 -85.03125 L 14.75 -85.03125 L 14.75 -94.328125 C 14.75 -103.160156 16.378906 -109.617188 19.640625 -113.703125 C 22.898438 -117.796875 28.234375 -119.84375 35.640625 -119.84375 C 37.742188 -119.84375 39.734375 -119.734375 41.609375 -119.515625 C 43.484375 -119.296875 45.304688 -118.960938 47.078125 -118.515625 L 47.078125 -106.421875 C 43.316406 -106.753906 40.191406 -106.726562 37.703125 -106.34375 C 35.222656 -105.957031 33.398438 -104.738281 32.234375 -102.6875 C 31.078125 -100.644531 30.5 -97.25 30.5 -92.5 L 30.5 -85.03125 L 47.078125 -85.03125 L 47.078125 -72.9375 L 30.5 -72.9375 L 30.5 0 Z M 14.75 0 "/></g></g></g><g fill="#ffffff" fill-opacity="1"><g transform="translate(610.202433, 399.533104)"><g><path d="M 30.828125 2.328125 C 22.316406 2.328125 15.601562 0.144531 10.6875 -4.21875 C 5.769531 -8.59375 3.3125 -14.257812 3.3125 -21.21875 C 3.3125 -29.394531 6.046875 -35.582031 11.515625 -39.78125 C 16.984375 -43.976562 24.914062 -46.960938 35.3125 -48.734375 C 39.289062 -49.398438 43.128906 -50.09375 46.828125 -50.8125 C 50.523438 -51.53125 53.585938 -52.71875 56.015625 -54.375 C 58.453125 -56.03125 59.671875 -58.679688 59.671875 -62.328125 C 59.671875 -66.859375 58.148438 -70.226562 55.109375 -72.4375 C 52.078125 -74.644531 48.019531 -75.75 42.9375 -75.75 C 36.195312 -75.75 31.113281 -74.3125 27.6875 -71.4375 C 24.257812 -68.570312 22.320312 -64.539062 21.875 -59.34375 L 6.96875 -59.34375 C 7.289062 -64.09375 8.640625 -68.566406 11.015625 -72.765625 C 13.398438 -76.960938 17.1875 -80.390625 22.375 -83.046875 C 27.570312 -85.703125 34.425781 -87.03125 42.9375 -87.03125 C 49.5625 -87.03125 55.304688 -86.035156 60.171875 -84.046875 C 65.035156 -82.054688 68.789062 -78.796875 71.4375 -74.265625 C 74.09375 -69.734375 75.421875 -63.597656 75.421875 -55.859375 L 75.421875 -14.921875 C 75.421875 -13.035156 75.585938 -11.265625 75.921875 -9.609375 C 76.253906 -7.953125 77.023438 -6.707031 78.234375 -5.875 C 79.453125 -5.050781 81.441406 -4.859375 84.203125 -5.296875 L 84.203125 0.171875 C 80.773438 1.273438 77.296875 1.828125 73.765625 1.828125 C 68.679688 1.828125 65.144531 0.640625 63.15625 -1.734375 C 61.164062 -4.109375 60.171875 -7.34375 60.171875 -11.4375 L 59.84375 -11.4375 C 56.75 -7.019531 52.6875 -3.617188 47.65625 -1.234375 C 42.625 1.140625 37.015625 2.328125 30.828125 2.328125 Z M 36.140625 -9.109375 C 41.554688 -9.109375 45.972656 -10.101562 49.390625 -12.09375 C 52.816406 -14.082031 55.382812 -16.597656 57.09375 -19.640625 C 58.8125 -22.679688 59.671875 -25.640625 59.671875 -28.515625 L 59.671875 -46.25 C 58.234375 -44.59375 55.800781 -43.320312 52.375 -42.4375 C 48.957031 -41.550781 44.925781 -40.773438 40.28125 -40.109375 C 33.539062 -39.003906 28.316406 -37.207031 24.609375 -34.71875 C 20.910156 -32.238281 19.0625 -28.625 19.0625 -23.875 C 19.0625 -18.894531 20.550781 -15.1875 23.53125 -12.75 C 26.519531 -10.320312 30.722656 -9.109375 36.140625 -9.109375 Z M 36.140625 -9.109375 "/></g></g></g><g fill="#ffffff" fill-opacity="1"><g transform="translate(696.724163, 399.533104)"><g><path d="M 7.625 0 L 7.625 -85.03125 L 23.375 -85.03125 L 23.375 -71.28125 L 23.703125 -71.28125 C 26.242188 -75.257812 29.804688 -78.878906 34.390625 -82.140625 C 38.984375 -85.398438 45.421875 -87.03125 53.703125 -87.03125 C 61.109375 -87.03125 67.378906 -84.648438 72.515625 -79.890625 C 77.660156 -75.140625 80.234375 -68.234375 80.234375 -59.171875 L 80.234375 0 L 64.484375 0 L 64.484375 -53.375 C 64.484375 -59.675781 63.179688 -64.703125 60.578125 -68.453125 C 57.984375 -72.210938 53.265625 -74.09375 46.421875 -74.09375 C 41.554688 -74.09375 37.410156 -73.125 33.984375 -71.1875 C 30.554688 -69.257812 27.929688 -66.773438 26.109375 -63.734375 C 24.285156 -60.691406 23.375 -57.40625 23.375 -53.875 L 23.375 0 Z M 7.625 0 "/></g></g></g><g fill="#ffffff" fill-opacity="1"><g transform="translate(783.908908, 399.533104)"><g/></g></g><g fill="#ffffff" fill-opacity="1"><g transform="translate(817.058991, 399.533104)"><g><path d="M 58.6875 2.328125 C 47.1875 2.328125 37.429688 -0.351562 29.421875 -5.71875 C 21.410156 -11.082031 15.304688 -18.40625 11.109375 -27.6875 C 6.910156 -36.96875 4.8125 -47.460938 4.8125 -59.171875 C 4.8125 -70.773438 6.960938 -81.21875 11.265625 -90.5 C 15.578125 -99.789062 21.929688 -107.171875 30.328125 -112.640625 C 38.734375 -118.109375 49.015625 -120.84375 61.171875 -120.84375 C 70.671875 -120.84375 78.925781 -119.15625 85.9375 -115.78125 C 92.957031 -112.414062 98.59375 -107.832031 102.84375 -102.03125 C 107.101562 -96.226562 109.785156 -89.566406 110.890625 -82.046875 L 93.328125 -82.046875 C 92.328125 -86.472656 90.472656 -90.507812 87.765625 -94.15625 C 85.066406 -97.800781 81.503906 -100.726562 77.078125 -102.9375 C 72.660156 -105.144531 67.25 -106.25 60.84375 -106.25 C 52.101562 -106.25 44.890625 -104.148438 39.203125 -99.953125 C 33.515625 -95.753906 29.285156 -90.117188 26.515625 -83.046875 C 23.753906 -75.972656 22.375 -68.015625 22.375 -59.171875 C 22.375 -50.335938 23.726562 -42.351562 26.4375 -35.21875 C 29.144531 -28.09375 33.34375 -22.484375 39.03125 -18.390625 C 44.726562 -14.304688 52 -12.265625 60.84375 -12.265625 C 67.6875 -12.265625 73.625 -13.753906 78.65625 -16.734375 C 83.6875 -19.722656 87.609375 -23.867188 90.421875 -29.171875 C 93.242188 -34.472656 94.65625 -40.660156 94.65625 -47.734375 L 62.828125 -47.734375 L 62.828125 -60.84375 L 112.71875 -60.84375 L 112.71875 0 L 99.796875 0 L 97.96875 -23.203125 L 97.640625 -23.203125 C 95.203125 -16.128906 90.75 -10.101562 84.28125 -5.125 C 77.820312 -0.15625 69.289062 2.328125 58.6875 2.328125 Z M 58.6875 2.328125 "/></g></g></g><g fill="#ffffff" fill-opacity="1"><g transform="translate(937.891131, 399.533104)"><g><path d="M 7.796875 0 L 7.796875 -118.515625 L 23.53125 -118.515625 L 23.53125 -71.28125 L 23.875 -71.28125 C 26.414062 -75.257812 29.953125 -78.878906 34.484375 -82.140625 C 39.015625 -85.398438 45.203125 -87.03125 53.046875 -87.03125 C 60.890625 -87.03125 67.40625 -84.648438 72.59375 -79.890625 C 77.789062 -75.140625 80.390625 -68.234375 80.390625 -59.171875 L 80.390625 0 L 64.65625 0 L 64.65625 -53.375 C 64.65625 -59.675781 63.378906 -64.703125 60.828125 -68.453125 C 58.285156 -72.210938 53.425781 -74.09375 46.25 -74.09375 C 41.71875 -74.09375 37.738281 -73.125 34.3125 -71.1875 C 30.882812 -69.257812 28.226562 -66.773438 26.34375 -63.734375 C 24.46875 -60.691406 23.53125 -57.40625 23.53125 -53.875 L 23.53125 0 Z M 7.796875 0 "/></g></g></g><g fill="#ffffff" fill-opacity="1"><g transform="translate(1025.241593, 399.533104)"><g><path d="M 30.828125 2.328125 C 22.316406 2.328125 15.601562 0.144531 10.6875 -4.21875 C 5.769531 -8.59375 3.3125 -14.257812 3.3125 -21.21875 C 3.3125 -29.394531 6.046875 -35.582031 11.515625 -39.78125 C 16.984375 -43.976562 24.914062 -46.960938 35.3125 -48.734375 C 39.289062 -49.398438 43.128906 -50.09375 46.828125 -50.8125 C 50.523438 -51.53125 53.585938 -52.71875 56.015625 -54.375 C 58.453125 -56.03125 59.671875 -58.679688 59.671875 -62.328125 C 59.671875 -66.859375 58.148438 -70.226562 55.109375 -72.4375 C 52.078125 -74.644531 48.019531 -75.75 42.9375 -75.75 C 36.195312 -75.75 31.113281 -74.3125 27.6875 -71.4375 C 24.257812 -68.570312 22.320312 -64.539062 21.875 -59.34375 L 6.96875 -59.34375 C 7.289062 -64.09375 8.640625 -68.566406 11.015625 -72.765625 C 13.398438 -76.960938 17.1875 -80.390625 22.375 -83.046875 C 27.570312 -85.703125 34.425781 -87.03125 42.9375 -87.03125 C 49.5625 -87.03125 55.304688 -86.035156 60.171875 -84.046875 C 65.035156 -82.054688 68.789062 -78.796875 71.4375 -74.265625 C 74.09375 -69.734375 75.421875 -63.597656 75.421875 -55.859375 L 75.421875 -14.921875 C 75.421875 -13.035156 75.585938 -11.265625 75.921875 -9.609375 C 76.253906 -7.953125 77.023438 -6.707031 78.234375 -5.875 C 79.453125 -5.050781 81.441406 -4.859375 84.203125 -5.296875 L 84.203125 0.171875 C 80.773438 1.273438 77.296875 1.828125 73.765625 1.828125 C 68.679688 1.828125 65.144531 0.640625 63.15625 -1.734375 C 61.164062 -4.109375 60.171875 -7.34375 60.171875 -11.4375 L 59.84375 -11.4375 C 56.75 -7.019531 52.6875 -3.617188 47.65625 -1.234375 C 42.625 1.140625 37.015625 2.328125 30.828125 2.328125 Z M 36.140625 -9.109375 C 41.554688 -9.109375 45.972656 -10.101562 49.390625 -12.09375 C 52.816406 -14.082031 55.382812 -16.597656 57.09375 -19.640625 C 58.8125 -22.679688 59.671875 -25.640625 59.671875 -28.515625 L 59.671875 -46.25 C 58.234375 -44.59375 55.800781 -43.320312 52.375 -42.4375 C 48.957031 -41.550781 44.925781 -40.773438 40.28125 -40.109375 C 33.539062 -39.003906 28.316406 -37.207031 24.609375 -34.71875 C 20.910156 -32.238281 19.0625 -28.625 19.0625 -23.875 C 19.0625 -18.894531 20.550781 -15.1875 23.53125 -12.75 C 26.519531 -10.320312 30.722656 -9.109375 36.140625 -9.109375 Z M 36.140625 -9.109375 "/></g></g></g><g fill="#ffffff" fill-opacity="1"><g transform="translate(1111.763357, 399.533104)"><g><path d="M 7.625 28.515625 L 7.625 -85.03125 L 23.375 -85.03125 L 23.375 -69.625 L 23.703125 -69.625 C 25.804688 -74.039062 29.257812 -78.046875 34.0625 -81.640625 C 38.875 -85.234375 44.867188 -87.03125 52.046875 -87.03125 C 59.234375 -87.03125 65.5625 -85.257812 71.03125 -81.71875 C 76.5 -78.1875 80.804688 -73.078125 83.953125 -66.390625 C 87.109375 -59.703125 88.6875 -51.71875 88.6875 -42.4375 C 88.6875 -33.15625 87.109375 -25.171875 83.953125 -18.484375 C 80.804688 -11.796875 76.5 -6.65625 71.03125 -3.0625 C 65.5625 0.53125 59.234375 2.328125 52.046875 2.328125 C 47.296875 2.328125 43.039062 1.472656 39.28125 -0.234375 C 35.53125 -1.953125 32.351562 -4.140625 29.75 -6.796875 C 27.15625 -9.453125 25.140625 -12.160156 23.703125 -14.921875 L 23.375 -14.921875 L 23.375 28.515625 Z M 47.90625 -9.953125 C 55.414062 -9.953125 61.460938 -12.769531 66.046875 -18.40625 C 70.640625 -24.039062 72.9375 -32.050781 72.9375 -42.4375 C 72.9375 -52.820312 70.640625 -60.832031 66.046875 -66.46875 C 61.460938 -72.101562 55.414062 -74.921875 47.90625 -74.921875 C 41.164062 -74.921875 35.445312 -72.101562 30.75 -66.46875 C 26.050781 -60.832031 23.703125 -52.820312 23.703125 -42.4375 C 23.703125 -32.050781 26.050781 -24.039062 30.75 -18.40625 C 35.445312 -12.769531 41.164062 -9.953125 47.90625 -9.953125 Z M 47.90625 -9.953125 "/></g></g></g><g fill="#ffffff" fill-opacity="1"><g transform="translate(1203.920587, 399.533104)"><g><path d="M 30.828125 2.328125 C 22.316406 2.328125 15.601562 0.144531 10.6875 -4.21875 C 5.769531 -8.59375 3.3125 -14.257812 3.3125 -21.21875 C 3.3125 -29.394531 6.046875 -35.582031 11.515625 -39.78125 C 16.984375 -43.976562 24.914062 -46.960938 35.3125 -48.734375 C 39.289062 -49.398438 43.128906 -50.09375 46.828125 -50.8125 C 50.523438 -51.53125 53.585938 -52.71875 56.015625 -54.375 C 58.453125 -56.03125 59.671875 -58.679688 59.671875 -62.328125 C 59.671875 -66.859375 58.148438 -70.226562 55.109375 -72.4375 C 52.078125 -74.644531 48.019531 -75.75 42.9375 -75.75 C 36.195312 -75.75 31.113281 -74.3125 27.6875 -71.4375 C 24.257812 -68.570312 22.320312 -64.539062 21.875 -59.34375 L 6.96875 -59.34375 C 7.289062 -64.09375 8.640625 -68.566406 11.015625 -72.765625 C 13.398438 -76.960938 17.1875 -80.390625 22.375 -83.046875 C 27.570312 -85.703125 34.425781 -87.03125 42.9375 -87.03125 C 49.5625 -87.03125 55.304688 -86.035156 60.171875 -84.046875 C 65.035156 -82.054688 68.789062 -78.796875 71.4375 -74.265625 C 74.09375 -69.734375 75.421875 -63.597656 75.421875 -55.859375 L 75.421875 -14.921875 C 75.421875 -13.035156 75.585938 -11.265625 75.921875 -9.609375 C 76.253906 -7.953125 77.023438 -6.707031 78.234375 -5.875 C 79.453125 -5.050781 81.441406 -4.859375 84.203125 -5.296875 L 84.203125 0.171875 C 80.773438 1.273438 77.296875 1.828125 73.765625 1.828125 C 68.679688 1.828125 65.144531 0.640625 63.15625 -1.734375 C 61.164062 -4.109375 60.171875 -7.34375 60.171875 -11.4375 L 59.84375 -11.4375 C 56.75 -7.019531 52.6875 -3.617188 47.65625 -1.234375 C 42.625 1.140625 37.015625 2.328125 30.828125 2.328125 Z M 36.140625 -9.109375 C 41.554688 -9.109375 45.972656 -10.101562 49.390625 -12.09375 C 52.816406 -14.082031 55.382812 -16.597656 57.09375 -19.640625 C 58.8125 -22.679688 59.671875 -25.640625 59.671875 -28.515625 L 59.671875 -46.25 C 58.234375 -44.59375 55.800781 -43.320312 52.375 -42.4375 C 48.957031 -41.550781 44.925781 -40.773438 40.28125 -40.109375 C 33.539062 -39.003906 28.316406 -37.207031 24.609375 -34.71875 C 20.910156 -32.238281 19.0625 -28.625 19.0625 -23.875 C 19.0625 -18.894531 20.550781 -15.1875 23.53125 -12.75 C 26.519531 -10.320312 30.722656 -9.109375 36.140625 -9.109375 Z M 36.140625 -9.109375 "/></g></g></g><g fill="#ffffff" fill-opacity="1"><g transform="translate(1290.442306, 399.533104)"><g><path d="M 7.625 0 L 7.625 -85.03125 L 23.375 -85.03125 L 23.375 -68.953125 L 23.703125 -68.953125 C 25.691406 -74.148438 28.757812 -78.347656 32.90625 -81.546875 C 37.050781 -84.753906 41.71875 -86.359375 46.90625 -86.359375 C 48.125 -86.359375 49.285156 -86.332031 50.390625 -86.28125 C 51.492188 -86.226562 52.597656 -86.085938 53.703125 -85.859375 L 53.703125 -72.109375 L 53.375 -72.109375 C 48.40625 -72.992188 43.625 -72.492188 39.03125 -70.609375 C 34.445312 -68.734375 30.691406 -65.75 27.765625 -61.65625 C 24.835938 -57.570312 23.375 -52.4375 23.375 -46.25 L 23.375 0 Z M 7.625 0 "/></g></g></g></svg>